# Blender v2.79 (sub 0) OBJ File: ''
# www.blender.org
mtllib grass.mtl
o Plane.002
v -1.369562 -0.002540 0.274334
v 0.626098 -0.014558 0.405473
v 0.638193 1.985405 0.404697
v -1.357467 1.997423 0.273558
v -1.186499 -0.008525 0.765895
v 0.113641 -0.008525 -0.753853
v 0.099565 1.991390 -0.765895
v -1.200575 1.991389 0.753853
v 0.485203 -0.018256 0.840923
v -0.571046 0.001216 -0.857299
v -0.560508 2.001121 -0.840923
v 0.495741 1.981649 0.857299
vt 0.000100 0.000100
vt 0.999900 0.000100
vt 0.999900 0.999900
vt 0.000100 0.999900
vt 0.000100 0.000100
vt 0.000100 0.999900
vt 0.999900 0.999900
vt 0.999900 0.000100
vt 0.000100 0.000100
vt 0.999900 0.000100
vt 0.999900 0.999900
vt 0.000100 0.999900
vn -0.7616 -0.6242 0.1739
vn 0.5936 -0.7455 0.3032
vn 0.5976 0.7436 0.3000
vn -0.7493 0.6394 0.1723
vn -0.6310 -0.6138 0.4744
vn -0.6341 0.6194 0.4629
vn 0.2065 0.7793 -0.5916
vn 0.2205 -0.7763 -0.5905
vn 0.4469 -0.6849 0.5755
vn -0.2956 -0.7194 -0.6285
vn -0.2850 0.7392 -0.6102
vn 0.4501 0.6777 0.5815
usemtl None
s 1
f 1/1/1 2/2/2 3/3/3 4/4/4
f 5/5/5 8/6/6 7/7/7 6/8/8
f 9/9/9 10/10/10 11/11/11 12/12/12
